<svg version="1.1" baseProfile="full" xmlns="http://www.w3.org/2000/svg" xmlns:xlink="http://www.w3.org/1999/xlink" xmlns:rdf="http://www.w3.org/1999/02/22-rdf-syntax-ns#" xmlns:dc="http://purl.org/dc/elements/1.1/" stroke-linecap="round" stroke-linejoin="round" fill-rule="evenodd" width="250.00" height="150.00" viewBox="0 0 5000 3000"><metadata><rdf:RDF><rdf:Description><dc:description>MSS/MilX-Export to SVG</dc:description><dc:publisher>gs-soft AG</dc:publisher></rdf:Description></rdf:RDF></metadata><defs><style type="text/css"><![CDATA[
.ss0 {fill:gray;stroke:gray;stroke-width:40;}
.bs0 {fill:gray;fill-rule:nonzero;stroke:none;}
.ps0 {fill:none;stroke:gray;stroke-width:26;}
.ss1 {fill:#888;stroke:black;stroke-width:40;}
.bs1 {fill:black;fill-rule:nonzero;stroke:none;}
.ps1 {fill:none;stroke:black;stroke-width:26;}
.ts0 {font-family:Arial;font-size:2517px;font-weight:bold;fill:gray;text-anchor:middle;}
.ts1 {font-family:Arial;font-size:2517px;font-weight:bold;fill:black;text-anchor:middle;}
.ts2 {font-family:Arial;font-size:30px;font-weight:bold;fill:black;text-anchor:end;}
.ts3 {font-family:Arial;font-size:30px;font-weight:bold;fill:black;}]]></style><mask id="cr0" maskUnits="userSpaceOnUse" x="0" y="0" width="5000" height="3000" fill-rule="nonzero"><use xlink:href="#cp0" fill="white"/></mask><mask id="cr1" maskUnits="userSpaceOnUse" x="0" y="0" width="5000" height="3000" fill-rule="nonzero"><use xlink:href="#cp1" fill="white"/></mask><polygon id="cp0" points="1367,1147 3645,1147 3645,2680 1367,2680" shape-rendering="crispEdges"/><polygon id="cp1" points="1327,1107 3605,1107 3605,2639 1327,2639" shape-rendering="crispEdges"/></defs><g transform="matrix(1.52398 0 0 1.52418 1367.14 1152.6)"><rect x="0" y="0" width="1500" height="1000" class="ss0"/></g><g transform="matrix(0.201613 0 0 0.201626 1367.14 340.65)"><text x="5673" y="3514" class="ts0">I I I</text></g><g mask="url(#cr0)"><g transform="matrix(1.52398 0 0 1.52418 1367.14 1152.6)"><polygon points="578,908 922,908 750,574" class="bs0"/><polyline points="0,1 1500,1000" class="ps0"/><polyline points="1500,1 0,1000" class="ps0"/></g></g><g transform="matrix(1.52398 0 0 1.52418 1326.81 1112.27)"><rect x="0" y="0" width="1500" height="1000" class="ss1"/></g><g transform="matrix(0.201613 0 0 0.201626 1326.81 300.325)"><text x="5673" y="3514" class="ts1">I I I</text></g><g mask="url(#cr1)"><g transform="matrix(1.52398 0 0 1.52418 1326.81 1112.27)"><polygon points="578,908 922,908 750,574" class="bs1"/><polyline points="0,1 1500,1000" class="ps1"/><polyline points="1500,1 0,1000" class="ps1"/></g></g><g transform="matrix(20.1613 0 0 20.1626 0 260)"><text x="56" y="112" class="ts2">218</text><text x="189" y="112" class="ts3"></text></g></svg>