<svg version="1.1" baseProfile="full" xmlns="http://www.w3.org/2000/svg" xmlns:xlink="http://www.w3.org/1999/xlink" xmlns:rdf="http://www.w3.org/1999/02/22-rdf-syntax-ns#" xmlns:dc="http://purl.org/dc/elements/1.1/" stroke-linecap="round" stroke-linejoin="round" fill-rule="evenodd" width="250.00" height="150.00" viewBox="0 0 5000 3000"><metadata><rdf:RDF><rdf:Description><dc:description>MSS/MilX-Export to SVG</dc:description><dc:publisher>gs-soft AG</dc:publisher></rdf:Description></rdf:RDF></metadata><defs><style type="text/css"><![CDATA[
.ss0 {fill:gray;stroke:gray;stroke-width:40;}
.bs0 {fill:gray;fill-rule:nonzero;stroke:none;}
.ps0 {fill:none;stroke:gray;stroke-width:26;}
.ss1 {fill:rgb(128,224,255);stroke:black;stroke-width:40;}
.ss1 {fill:#888;stroke:black;stroke-width:40;}
.bs1 {fill:black;fill-rule:nonzero;stroke:none;}
.ps1 {fill:none;stroke:black;stroke-width:26;}
.ts0 {font-family:Arial;font-size:2517px;font-weight:bold;fill:gray;text-anchor:middle;}
.ts1 {font-family:Arial;font-size:2517px;font-weight:bold;fill:black;text-anchor:middle;}
.ts2 {font-family:Arial;font-size:20px;fill:black;text-anchor:end;}
.ts3 {font-family:Arial;font-size:20px;fill:black;}]]></style><mask id="cr0" maskUnits="userSpaceOnUse" x="0" y="0" width="5000" height="3000" fill-rule="nonzero"><use xlink:href="#cp0" fill="white"/></mask><mask id="cr1" maskUnits="userSpaceOnUse" x="0" y="0" width="5000" height="3000" fill-rule="nonzero"><use xlink:href="#cp1" fill="white"/></mask><polygon id="cp0" points="825,1073 3581,1073 3581,2927 825,2927" shape-rendering="crispEdges"/><polygon id="cp1" points="776,1024 3532,1024 3532,2878 776,2878" shape-rendering="crispEdges"/></defs><g transform="matrix(1.84365 0 0 1.84377 824.634 1079.76)"><rect x="0" y="0" width="1500" height="1000" class="ss0"/></g><g transform="matrix(0.243902 0 0 0.243902 824.634 97.561)"><text x="5673" y="3514" class="ts0">I I</text></g><g mask="url(#cr0)"><g transform="matrix(1.84365 0 0 1.84377 824.634 1079.76)"><polygon points="578,908 922,908 750,574" class="bs0"/><polyline points="0,1 1500,1000" class="ps0"/><polyline points="1500,1 0,1000" class="ps0"/></g></g><g transform="matrix(1.84365 0 0 1.84377 775.854 1030.98)"><rect x="0" y="0" width="1500" height="1000" class="ss1"/></g><g transform="matrix(0.243902 0 0 0.243902 775.854 48.7805)"><text x="5673" y="3514" class="ts1">I I</text></g><g mask="url(#cr1)"><g transform="matrix(1.84365 0 0 1.84377 775.854 1030.98)"><polygon points="578,908 922,908 750,574" class="bs1"/><polyline points="0,1 1500,1000" class="ps1"/><polyline points="1500,1 0,1000" class="ps1"/></g></g><g transform="matrix(24.3902 0 0 24.3902 0 0)"><text x="22" y="111" class="ts2">II</text><text x="155" y="111" class="ts3">218</text></g></svg>