<svg version="1.1" baseProfile="full" xmlns="http://www.w3.org/2000/svg" xmlns:xlink="http://www.w3.org/1999/xlink" xmlns:rdf="http://www.w3.org/1999/02/22-rdf-syntax-ns#" xmlns:dc="http://purl.org/dc/elements/1.1/" stroke-linecap="round" stroke-linejoin="round" fill-rule="evenodd" width="250.00" height="150.00" viewBox="0 0 5000 3000"><metadata><rdf:RDF><rdf:Description><dc:description>MSS/MilX-Export to SVG</dc:description><dc:publisher>gs-soft AG</dc:publisher></rdf:Description></rdf:RDF></metadata><defs><style type="text/css"><![CDATA[
.ss0 {fill:gray;stroke:gray;stroke-width:40;}
.bs0 {fill:gray;fill-rule:nonzero;stroke:none;}
.ps0 {fill:none;stroke:gray;stroke-width:26;}
.ps1 {fill:none;stroke:gray;stroke-width:300;}
.ss1 {fill:#888;stroke:black;stroke-width:40;}
.bs1 {fill:black;fill-rule:nonzero;stroke:none;}
.ps2 {fill:none;stroke:black;stroke-width:26;}
.ps3 {fill:none;stroke:black;stroke-width:300;}
.ts0 {font-family:Arial;font-size:2517px;font-weight:bold;fill:gray;text-anchor:middle;}
.ts1 {font-family:Arial;font-size:2517px;font-weight:bold;fill:black;text-anchor:middle;}
.ts2 {font-family:Arial;font-size:30px;font-weight:bold;fill:black;text-anchor:end;}
.ts3 {font-family:Arial;font-size:30px;font-weight:bold;fill:black;}]]></style><mask id="cr0" maskUnits="userSpaceOnUse" x="0" y="0" width="5000" height="3000" fill-rule="nonzero"><use xlink:href="#cp0" fill="white"/></mask><mask id="cr1" maskUnits="userSpaceOnUse" x="0" y="0" width="5000" height="3000" fill-rule="nonzero"><use xlink:href="#cp1" fill="white"/></mask><polygon id="cp0" points="1451,663 3160,663 3160,1809 1451,1809" shape-rendering="crispEdges"/><polygon id="cp1" points="1421,633 3130,633 3130,1779 1421,1779" shape-rendering="crispEdges"/></defs><g transform="matrix(1.14306 0 0 1.13961 1451.27 667.387)"><rect x="0" y="0" width="1500" height="1000" class="ss0"/></g><g transform="matrix(0.15122 0 0 0.150754 1451.27 60.3015)"><text x="5673" y="3514" class="ts0">I I</text></g><g mask="url(#cr0)"><g transform="matrix(1.14306 0 0 1.13961 1451.27 667.387)"><polygon points="578,908 922,908 750,574" class="bs0"/><polyline points="0,1 1500,1000" class="ps0"/><polyline points="1500,1 0,1000" class="ps0"/></g></g><g transform="matrix(0.15122 0 0 0.150754 970.244 30.1508)"><polyline points="3181,11800 3181,19400" class="ps1"/></g><g transform="matrix(1.14306 0 0 1.13961 1421.03 637.236)"><rect x="0" y="0" width="1500" height="1000" class="ss1"/></g><g transform="matrix(0.15122 0 0 0.150754 1421.03 30.1508)"><text x="5673" y="3514" class="ts1">I I</text></g><g mask="url(#cr1)"><g transform="matrix(1.14306 0 0 1.13961 1421.03 637.236)"><polygon points="578,908 922,908 750,574" class="bs1"/><polyline points="0,1 1500,1000" class="ps2"/><polyline points="1500,1 0,1000" class="ps2"/></g></g><g transform="matrix(0.15122 0 0 0.150754 940 0)"><polyline points="3181,11800 3181,19400" class="ps3"/></g><g transform="matrix(15.122 0 0 15.0754 940 0)"><text x="22" y="112" class="ts2">I</text><text x="155" y="112" class="ts3">218</text></g></svg>