<svg 
  xmlns="http://www.w3.org/2000/svg" 
  xmlns:xlink="http://www.w3.org/1999/xlink" 
  stroke-linecap="round" 
  stroke-linejoin="round" 
  fill-rule="evenodd" 
  width="250.00" 
  height="150.00" 
  viewBox="0 0 5000 3000">
  <defs>
    <style type="text/css">
      .ss0 {fill:gray;stroke:gray;stroke-width:40;}
      .ps0 {fill:none;stroke:gray;stroke-width:26;}
      .ss1 {fill:rgb(128,224,255);stroke:black;stroke-width:40;}
      .ps1 {fill:none;stroke:black;stroke-width:26;}
      .ts0 {font-family:Arial;font-size:2517px;font-weight:bold;fill:gray;text-anchor:middle;}
      .ts1 {font-family:Arial;font-size:2517px;font-weight:bold;fill:black;text-anchor:middle;}
      .ts2 {font-family:Arial;font-size:20px;fill:black;text-anchor:end;}
      .ts3 {font-family:Arial;font-size:20px;fill:black;}
    </style>
    <mask id="cr0" maskUnits="userSpaceOnUse" x="0" y="0" width="5000" height="3000" fill-rule="nonzero">
      <use xlink:href="#cp0" fill="white"/>
    </mask>
    <mask id="cr1" maskUnits="userSpaceOnUse" x="0" y="0" width="5000" height="3000" fill-rule="nonzero">
      <use xlink:href="#cp1" fill="white"/>
    </mask>
    <polygon id="cp0" points="1476,1066 4219,1066 4219,2907 1476,2907" shape-rendering="crispEdges"/>
    <polygon id="cp1" points="1427,1018 4170,1018 4170,2859 1427,2859" shape-rendering="crispEdges"/>
  </defs>
  <g transform="matrix(1.8347 0 0 1.83147 1475.97 1072.56)">
    <rect x="0" y="0" width="1500" height="1000" class="ss0"/>
  </g>
  <g transform="matrix(0.242718 0 0 0.242276 1475.97 96.9106)">
    <text x="5673" y="3514" class="ts0">I I</text>
  </g>
  <g mask="url(#cr0)">
    <g transform="matrix(1.8347 0 0 1.83147 1475.97 1072.56)">
      <polyline points="0,0 1500,1000" class="ps0"/>
      <polyline points="1500,0 0,1000" class="ps0"/>
    </g>
  </g>
  <g transform="matrix(1.8347 0 0 1.83147 1427.43 1024.1)">
    <rect x="0" y="0" width="1500" height="1000" class="ss1"/>
  </g>
  <g transform="matrix(0.242718 0 0 0.242276 1427.43 48.4553)">
    <text x="5673" y="3514" class="ts1">I I</text>
  </g>
  <g mask="url(#cr1)">
    <g transform="matrix(1.8347 0 0 1.83147 1427.43 1024.1)">
      <polyline points="0,0 1500,1000" class="ps1"/>
      <polyline points="1500,0 0,1000" class="ps1"/>
    </g>
  </g>
  <g transform="matrix(24.2718 0 0 24.2276 0 0)">
    <text x="49" y="111" class="ts2">JP5</text>
    <text x="182" y="111" class="ts3"></text>
  </g>
</svg>